<svg xmlns="http://www.w3.org/2000/svg" width="64" height="64" viewBox="0 0 64 64" fill="none">
  <rect width="64" height="64" rx="12" fill="#0a0f1f"/>
  <path d="M18 46V18h10.8c3.6 0 6.3.9 8.1 2.7 1.8 1.8 2.7 4 2.7 6.7 0 2.3-.6 4.3-1.9 6-1.3 1.7-3 2.8-5.2 3.3L46 46h-6.9l-12-12.2h-5.1V46H18Zm7.2-17h3.9c1.9 0 3.3-.4 4.3-1.3 1-0.9 1.5-2.2 1.5-3.9 0-1.7-.5-3.1-1.5-4-1-0.9-2.4-1.4-4.3-1.4h-3.9V29Z" fill="url(#g)"/>
  <defs>
    <linearGradient id="g" x1="18" y1="18" x2="46" y2="46" gradientUnits="userSpaceOnUse">
      <stop stop-color="#00eaff"/>
      <stop offset="1" stop-color="#a855f7"/>
    </linearGradient>
  </defs>
</svg>